<svg viewBox="0 0 607 112">
<path d="M605.592 48H588.192H582.192V54V60V66V72H576.192V66H570.192V60H564.192V54V48H570.192V36H558.192V42H552.192H546.192V36H540.192V30H534.192V24H540.192H546.192H552.192H558.192V18V0.6V0H576.192H582.192V24H606.192V30V47.4V48H605.592ZM576.192 0.6H558.792V18H564.192V12H570.192V6H576.192V0.6ZM605.592 30H600.192V36H594.192V42H588.192V47.4H605.592V30ZM544.384 69.943V73.832C544.384 77.648 540.928 77.864 539.488 77.864H526.167V84.489C526.167 87.081 528.399 88.233 532.359 88.233C535.96 88.233 537.472 87.513 539.56 87.513C541.288 87.513 542.368 88.665 542.368 89.889C542.368 91.041 541.504 92.337 539.92 92.697C537.472 93.273 533.295 93.633 531.063 93.633C525.591 93.633 520.406 90.537 520.406 84.201V69.943C520.406 63.607 525.879 60.655 530.415 60.655H534.303C538.84 60.655 544.384 63.607 544.384 69.943ZM531.279 65.911C528.615 65.911 526.167 66.631 526.167 69.583V72.536H539.056V69.583C539.056 66.631 536.536 65.911 533.871 65.911H531.279ZM501.4 88.305C504.857 88.305 507.377 87.657 509.249 87.657C510.761 87.657 512.201 88.665 512.201 90.249C512.201 91.329 511.481 92.553 509.969 92.841C507.521 93.345 502.624 93.705 499.528 93.705C495.568 93.705 490.239 90.681 490.239 84.345V69.943C490.239 63.607 495.568 60.583 499.528 60.583C502.192 60.583 507.521 60.943 509.969 61.447C511.481 61.735 512.201 62.959 512.201 64.039C512.201 65.623 510.761 66.631 509.249 66.631C507.377 66.631 504.857 65.983 501.472 65.983C497.872 65.983 496 67.207 496 69.655V84.633C496 87.081 497.872 88.305 501.4 88.305ZM477.21 93.633C475.626 93.633 474.33 92.337 474.33 90.753V72.248C474.33 68.863 473.754 66.343 471.45 66.343C468.714 66.343 462.953 71.96 459.785 74.984V90.753C459.785 92.337 458.561 93.633 456.977 93.633C455.392 93.633 454.024 92.337 454.024 90.753V63.535C454.024 61.951 455.32 60.655 456.905 60.655C458.489 60.655 459.785 61.951 459.785 63.535V68.071C462.089 65.839 467.201 60.655 471.594 60.655C477.498 60.655 480.091 65.911 480.091 71.672V90.753C480.091 92.337 478.794 93.633 477.21 93.633ZM440.275 77.864H426.954V84.489C426.954 87.081 429.186 88.233 433.146 88.233C436.746 88.233 438.259 87.513 440.347 87.513C442.075 87.513 443.155 88.665 443.155 89.889C443.155 91.041 442.291 92.337 440.707 92.697C438.259 93.273 434.082 93.633 431.85 93.633C426.378 93.633 421.193 90.537 421.193 84.201V69.943C421.193 63.607 426.666 60.655 431.202 60.655H435.09C439.627 60.655 445.171 63.607 445.171 69.943V73.832C445.171 77.648 441.715 77.864 440.275 77.864ZM439.843 69.583C439.843 66.631 437.322 65.911 434.658 65.911H432.066C429.402 65.911 426.954 66.631 426.954 69.583V72.536H439.843V69.583ZM411.548 66.559H408.668C408.668 66.559 409.748 68.431 409.748 71.744C409.748 77.648 407.3 83.337 400.459 83.337H395.563V89.601H403.339C409.892 89.601 412.628 94.714 412.628 100.474C412.628 106.379 409.676 111.707 403.339 111.707H390.234C383.754 111.707 380.945 106.451 380.945 100.69C380.945 95.146 383.754 89.745 389.802 89.745V82.688C389.802 82.688 383.898 81.248 383.898 72.176C383.898 66.271 386.922 61.231 393.186 61.231H411.548C412.988 61.231 414.14 62.455 414.14 63.895C414.14 65.335 412.988 66.559 411.548 66.559ZM386.706 100.474C386.706 103.354 387.354 106.379 390.378 106.379H403.195C406.22 106.379 406.868 103.354 406.868 100.69C406.868 98.458 406.364 95.002 403.195 95.002H390.378C387.21 95.002 386.706 98.386 386.706 100.474ZM400.315 66.559H393.33C390.45 66.559 389.658 69.223 389.658 71.672C389.658 73.976 390.234 78.008 393.33 78.008H400.315C403.483 78.008 403.987 74.264 403.987 71.96C403.987 69.367 403.123 66.559 400.315 66.559ZM376.484 66.775C375.98 66.775 375.332 66.919 375.332 66.919C372.812 66.919 366.403 75.056 366.403 75.056V90.753C366.403 92.337 365.107 93.633 363.523 93.633C361.939 93.633 360.643 92.337 360.643 90.753V63.535C360.643 61.951 361.939 60.655 363.523 60.655C365.107 60.655 366.403 61.951 366.403 63.535V68.071C366.403 68.071 371.66 60.655 375.548 60.655C377.492 60.655 378.572 62.167 378.572 64.111C378.572 65.407 377.564 66.775 376.484 66.775ZM346.893 77.864H333.572V84.489C333.572 87.081 335.804 88.233 339.765 88.233C343.365 88.233 344.877 87.513 346.965 87.513C348.693 87.513 349.773 88.665 349.773 89.889C349.773 91.041 348.909 92.337 347.325 92.697C344.877 93.273 340.701 93.633 338.468 93.633C332.996 93.633 327.811 90.537 327.811 84.201V69.943C327.811 63.607 333.284 60.655 337.82 60.655H341.709C346.245 60.655 351.79 63.607 351.79 69.943V73.832C351.79 77.648 348.333 77.864 346.893 77.864ZM346.461 69.583C346.461 66.631 343.941 65.911 341.277 65.911H338.684C336.02 65.911 333.572 66.631 333.572 69.583V72.536H346.461V69.583ZM314.567 93.633C312.983 93.633 311.687 92.337 311.687 90.753V72.248C311.687 70.231 311.687 66.343 308.807 66.343C306.071 66.343 300.166 72.032 297.142 74.984V90.753C297.142 92.337 295.846 93.633 294.262 93.633C292.677 93.633 291.381 92.337 291.381 90.753V72.32C291.381 70.303 291.381 66.343 288.501 66.343C285.765 66.343 280.004 71.96 276.836 74.984V90.753C276.836 92.337 275.612 93.633 274.028 93.633C272.444 93.633 271.076 92.337 271.076 90.753V63.535C271.076 61.951 272.372 60.655 273.956 60.655C275.54 60.655 276.836 61.951 276.836 63.535V68.071C279.14 65.839 284.253 60.655 288.645 60.655C293.758 60.655 295.99 64.687 296.854 68.287C300.238 65.191 304.558 60.655 308.951 60.655C314.927 60.655 317.448 65.911 317.448 71.672V90.753C317.448 92.337 316.223 93.633 314.567 93.633ZM257.326 77.864H244.005V84.489C244.005 87.081 246.237 88.233 250.197 88.233C253.798 88.233 255.31 87.513 257.398 87.513C259.126 87.513 260.206 88.665 260.206 89.889C260.206 91.041 259.342 92.337 257.758 92.697C255.31 93.273 251.133 93.633 248.901 93.633C243.429 93.633 238.244 90.537 238.244 84.201V69.943C238.244 63.607 243.717 60.655 248.253 60.655H252.142C256.678 60.655 262.222 63.607 262.222 69.943V73.832C262.222 77.648 258.766 77.864 257.326 77.864ZM256.894 69.583C256.894 66.631 254.374 65.911 251.71 65.911H249.117C246.453 65.911 244.005 66.631 244.005 69.583V72.536H256.894V69.583ZM215.926 48.126C214.774 48.126 213.55 47.549 211.462 47.549C209.23 47.549 207.501 48.99 207.501 51.51V61.231H213.406C214.846 61.231 216.07 62.455 216.07 63.895C216.07 65.335 214.846 66.559 213.406 66.559H207.501V95.578C207.501 97.162 206.205 98.458 204.621 98.458C203.037 98.458 201.741 97.162 201.741 95.578V66.559H199.365C197.925 66.559 196.701 65.335 196.701 63.895C196.701 62.455 197.925 61.231 199.365 61.231H201.741V51.438C201.741 44.957 206.925 42.293 211.462 42.293C213.766 42.293 214.99 42.509 216.862 43.085C218.23 43.517 218.806 44.453 218.806 45.389C218.806 46.973 217.438 48.126 215.926 48.126ZM180.358 93.561H174.67C170.134 93.561 164.661 90.609 164.661 84.273V69.943C164.661 63.607 170.134 60.655 174.67 60.655H180.358C184.895 60.655 190.367 63.607 190.367 69.943V84.273C190.367 90.321 184.895 93.561 180.358 93.561ZM184.607 70.591C184.607 66.919 181.151 65.983 177.19 65.983C174.094 65.983 170.422 66.991 170.422 70.447V84.561C170.422 88.017 174.094 88.233 177.19 88.233C180.502 88.233 184.607 88.233 184.607 84.561V70.591ZM133.416 77.864H120.094V84.489C120.094 87.081 122.327 88.233 126.287 88.233C129.887 88.233 131.399 87.513 133.488 87.513C135.216 87.513 136.296 88.665 136.296 89.889C136.296 91.041 135.432 92.337 133.848 92.697C131.399 93.273 127.223 93.633 124.991 93.633C119.518 93.633 114.334 90.537 114.334 84.201V69.943C114.334 63.607 119.806 60.655 124.343 60.655H128.231C132.768 60.655 138.312 63.607 138.312 69.943V73.832C138.312 77.648 134.856 77.864 133.416 77.864ZM132.984 69.583C132.984 66.631 130.463 65.911 127.799 65.911H125.207C122.543 65.911 120.094 66.631 120.094 69.583V72.536H132.984V69.583ZM101.232 93.561C95.903 93.561 90.935 91.185 90.935 84.993V66.559H87.335C85.895 66.559 84.67 65.335 84.67 63.895C84.67 62.455 85.895 61.231 87.335 61.231H90.935V52.302C90.935 50.718 92.303 49.422 93.887 49.422C95.471 49.422 96.767 50.718 96.767 52.302V61.231H102.528C103.968 61.231 105.192 62.383 105.192 63.823C105.192 65.263 103.824 66.559 102.384 66.559H96.767V84.345C96.767 87.801 99.144 88.305 101.232 88.305C102.816 88.305 103.968 87.585 105.192 87.585C106.776 87.585 107.712 88.665 107.712 90.105C107.712 91.041 107.352 91.689 106.776 92.265C105.84 93.201 102.384 93.561 101.232 93.561ZM75.529 93.345H64.224C59.687 93.345 54.215 90.537 54.215 84.201V82.76C54.215 76.424 59.831 73.328 65.664 73.328H72.72V69.655C72.72 66.919 70.776 65.911 67.392 65.911C64.152 65.911 61.631 66.631 59.543 66.631C57.815 66.631 56.807 65.479 56.807 64.255C56.807 63.103 57.599 61.879 59.255 61.447C61.487 60.871 67.104 60.655 69.12 60.655C74.665 60.655 78.481 64.399 78.481 69.943V90.465C78.481 92.049 77.113 93.345 75.529 93.345ZM72.72 78.656H66.6C63.504 78.656 59.975 79.52 59.975 82.977V84.201C59.975 86.361 61.631 88.017 66.6 88.017H72.72V78.656ZM42.409 93.561C37.08 93.561 32.112 91.185 32.112 84.993V66.559H28.512C27.072 66.559 25.847 65.335 25.847 63.895C25.847 62.455 27.072 61.231 28.512 61.231H32.112V52.302C32.112 50.718 33.48 49.422 35.064 49.422C36.648 49.422 37.944 50.718 37.944 52.302V61.231H43.705C45.145 61.231 46.369 62.383 46.369 63.823C46.369 65.263 45.001 66.559 43.561 66.559H37.944V84.345C37.944 87.801 40.321 88.305 42.409 88.305C43.993 88.305 45.145 87.585 46.369 87.585C47.953 87.585 48.889 88.665 48.889 90.105C48.889 91.041 48.529 91.689 47.953 92.265C47.017 93.201 43.561 93.561 42.409 93.561ZM9.793 93.633C7.2 93.633 4.536 93.345 2.304 92.769C1.152 92.481 0.432 91.401 0.432 90.177C0.432 88.665 1.584 87.729 3.168 87.729C3.96 87.729 5.184 88.521 8.496 88.521C12.025 88.521 15.841 87.729 15.841 84.921C15.841 78.656 0 78.656 0 68.863C0 62.599 5.472 60.799 10.945 60.799C13.537 60.799 16.057 61.159 18.073 61.591C19.225 61.879 19.945 62.959 19.945 64.111C19.945 65.623 18.721 66.631 17.281 66.631C16.417 66.631 15.049 65.911 11.809 65.911C8.784 65.911 5.616 66.559 5.616 68.791C5.616 73.256 21.53 74.048 21.53 84.921C21.53 91.689 15.697 93.633 9.793 93.633Z" />
<path d="M9.793 93.633C7.2 93.633 4.536 93.345 2.304 92.769C1.152 92.481 0.432 91.401 0.432 90.177C0.432 88.665 1.584 87.729 3.168 87.729C3.96 87.729 5.184 88.521 8.496 88.521C12.025 88.521 15.841 87.729 15.841 84.921C15.841 78.656 0 78.656 0 68.863C0 62.599 5.472 60.799 10.945 60.799C13.537 60.799 16.057 61.159 18.073 61.591C19.225 61.879 19.945 62.959 19.945 64.111C19.945 65.623 18.721 66.631 17.281 66.631C16.417 66.631 15.049 65.911 11.809 65.911C8.784 65.911 5.616 66.559 5.616 68.791C5.616 73.256 21.53 74.048 21.53 84.921C21.53 91.689 15.697 93.633 9.793 93.633Z" fill="#C4C4C4"/>
</svg>
