<svg viewBox="0 0 1888 673">
<path d="M38 2C106.996 1.745 90.009 77.092 90 143C89.986 248.771 78.745 347.984 162 371C183.168 376.852 214.372 374.199 232 368C313.219 339.44 297.016 245.225 297 139C296.992 83.59 281.853 -12.209 350 2C398.347 12.081 386.001 81.94 386 139C385.998 274.614 392.553 374.279 308 427C289.958 438.249 267.535 445.657 244 451C216.116 457.33 174.436 456.681 147 451C52.485 431.43 17.395 381.077 2.00001 282C2.00001 224.339 2.00001 166.661 2.00001 109C1.99901 85.299 -3.18799 49.738 4.00001 30C10.044 13.405 22.781 9.782 38 2ZM1644 2C1680.04 1.455 1712 3.149 1738 13C1832.07 48.644 1918.5 155.895 1877 294C1860.82 347.858 1832.72 388.214 1806 431C1781.67 470.663 1757.33 510.337 1733 550C1712.52 581.902 1658.24 710.728 1595 662C1574.07 645.871 1589.18 616.75 1599 601C1618.67 568.67 1638.34 536.33 1658 504C1665.9 491.058 1679.31 476.974 1674 457C1658.21 452.296 1630.09 456.964 1611 453C1563.99 443.239 1522.43 420.62 1497 389C1479.44 367.162 1462.46 343.883 1452 315C1406.1 188.298 1475.94 74.016 1554 28C1571.28 17.813 1593.32 11.032 1615 6C1624.67 4.667 1634.33 3.333 1644 2ZM789 5C811.4 4.688 825.786 12.46 834 26C845.216 44.487 840.003 86.998 840 115C840 186.326 840 257.674 840 329C840.003 370.555 847.304 427.081 823 445C776.704 479.132 742.035 423.24 724 399C661.006 317.008 597.994 234.992 535 153C535 216.994 535 281.006 535 345C535.004 369.636 540.569 408.977 532 428C524.522 444.6 502.66 462.795 476 453C442.167 440.569 447.994 398.014 448 352C448 269.675 448 187.325 448 105C447.997 60.137 443.039 22.099 475 9C528.278 -12.835 554.357 40.246 573 65C632.661 142.659 692.339 220.341 752 298C752 237.673 752 177.327 752 117C751.999 92.079 746.53 54.924 754 34C760.19 16.662 772.91 12.79 789 5ZM953 5C1010.37 4.36 1004 52.724 1004 109C1004 187.659 1004 266.341 1004 345C1004 397.454 1010.92 446.023 967 455C907.584 467.143 914.995 397.754 915 348C915 271.674 915 195.326 915 119C914.998 88.784 909.497 43.205 922 24C929.298 12.789 940.178 11.042 953 5ZM1281 90C1281 181.991 1281 274.009 1281 366C1281.01 411.483 1282.21 465.89 1229 455C1187.07 446.418 1192 403.399 1192 353C1192 265.342 1192 177.658 1192 90C1160.65 90.519 1088.01 96.248 1069 84C1046.77 69.676 1045.19 31.925 1067 16C1082.71 4.534 1120.73 8.998 1147 9C1210.66 9 1274.34 9 1338 9C1369.89 8.997 1401.52 5.706 1415 24C1421.27 32.507 1425.15 47.015 1421 60C1407.53 102.145 1335.45 90.825 1281 90ZM1653 89C1639.57 94.087 1626.06 93.118 1614 98C1575.45 113.609 1548.48 142.438 1536 184C1509 273.907 1581.96 384.586 1673 370C1732.3 360.498 1769.37 329.519 1788 280C1826.21 178.465 1747.16 88.145 1653 89Z" />
</svg>
