<svg viewBox="0 0 360 219">
<path d="M31.96 176.61L22.23 204.86L12.27 176.61H0L15.17 217.91H28.65L43.91 176.61H31.96Z" />
<path d="M106.23 197.31C106.23 195.103 106.885 192.945 108.111 191.11C109.337 189.275 111.08 187.844 113.119 187C115.158 186.155 117.402 185.934 119.567 186.365C121.732 186.795 123.721 187.858 125.281 189.419C126.842 190.98 127.905 192.968 128.336 195.133C128.766 197.298 128.545 199.542 127.701 201.581C126.856 203.62 125.425 205.363 123.59 206.589C121.755 207.816 119.597 208.47 117.39 208.47C115.924 208.47 114.473 208.181 113.119 207.621C111.765 207.06 110.535 206.238 109.499 205.201C108.462 204.165 107.64 202.935 107.079 201.581C106.519 200.227 106.23 198.776 106.23 197.31ZM128.08 159.77V180.05H128.03C124.569 177.444 120.363 176.017 116.03 175.98C104.62 175.98 95.36 185.52 95.36 197.28C95.36 209.04 104.61 218.58 116.03 218.58C120.383 218.588 124.622 217.185 128.11 214.58V218.03H138.72V159.77H128.08Z" />
<path d="M156.72 197.31C156.72 195.103 157.375 192.945 158.601 191.11C159.827 189.275 161.57 187.844 163.609 187C165.648 186.155 167.892 185.934 170.057 186.365C172.222 186.795 174.211 187.858 175.771 189.419C177.332 190.98 178.395 192.968 178.826 195.133C179.256 197.298 179.035 199.542 178.19 201.581C177.346 203.62 175.915 205.363 174.08 206.589C172.245 207.816 170.087 208.47 167.88 208.47C166.414 208.47 164.963 208.181 163.609 207.621C162.255 207.06 161.025 206.238 159.989 205.201C158.952 204.165 158.13 202.935 157.57 201.581C157.009 200.227 156.72 198.776 156.72 197.31ZM178.57 176.66V180.05H178.52C175.059 177.443 170.853 176.016 166.52 175.98C155.11 175.98 145.85 185.52 145.85 197.28C145.85 209.04 155.1 218.58 166.52 218.58C170.873 218.587 175.111 217.184 178.6 214.58V218.03H189.22V176.66H178.57Z" />
<path d="M218.11 176.66H211.75C211.75 176.66 211.75 175.33 211.75 174.15C211.75 171.53 211.75 168.21 215.92 168.21C216.624 168.217 217.326 168.277 218.02 168.39V158.78C218.02 158.78 216.28 158.78 215.09 158.78C205.33 159.16 201.03 162.49 201.03 172.25V176.66H196.28V186.18H200.97V217.91H211.71V186.18H218.07V176.66H218.11Z" />
<path d="M282.36 180.26C285.723 177.336 290.043 175.748 294.5 175.8C304.23 175.8 309.8 182 309.83 190.18V217.91H298.83V193.81C298.83 187.74 294.6 185.89 291.26 185.89C288.18 185.89 282.26 187.59 282.62 195V217.92H271.62V176.66H282.28V180.26H282.36Z" />
<path d="M328.35 200.52C328.601 203.025 329.788 205.343 331.673 207.011C333.558 208.68 336.003 209.575 338.52 209.52C342.71 209.52 345.52 207.86 347.14 204.86H358.61C356.77 211.29 349.54 218.56 338.89 218.56C326.07 218.56 317.03 209.01 317.03 197.24C317.056 194.402 317.643 191.596 318.757 188.986C319.872 186.375 321.491 184.01 323.523 182.028C325.555 180.045 327.958 178.484 330.596 177.434C333.233 176.385 336.052 175.866 338.89 175.91C351.07 175.91 359.73 186.29 359.73 197.24C359.762 198.346 359.675 199.453 359.47 200.54H328.35V200.52ZM348.15 192.52C347.22 187.84 343.29 185.14 338.52 185.14C333.59 185.14 329.74 188.01 328.63 192.49H348.15V192.52Z" />
<path d="M75.25 177.24C73.305 177.666 71.5632 178.742 70.3124 180.291C69.0615 181.84 68.3763 183.769 68.37 185.76C68.37 185.85 68.37 185.96 68.37 186.05C74.57 187.37 77.7 191.55 77.7 197.05C77.6947 200.028 76.5102 202.882 74.4056 204.989C72.301 207.095 69.4477 208.282 66.47 208.29C60.28 208.29 54.47 203.12 54.47 195.46C54.47 186.1 62.47 177.32 73.92 177.05H74.78C72.1896 176.066 69.441 175.564 66.67 175.57C54.41 175.57 44.47 185.19 44.47 197.05C44.47 208.91 54.42 218.59 66.69 218.59C78.96 218.59 88.9 208.97 88.9 197.11C88.8637 192.821 87.5455 188.641 85.1148 185.108C82.6841 181.574 79.2521 178.848 75.26 177.28L75.25 177.24Z" />
<path d="M242.71 175.77C230.44 175.77 220.5 185.39 220.5 197.25C220.536 201.54 221.855 205.722 224.288 209.256C226.72 212.79 230.155 215.515 234.15 217.08C236.094 216.654 237.835 215.578 239.084 214.029C240.333 212.479 241.016 210.55 241.02 208.56C241.02 208.47 241.02 208.36 241.02 208.27C234.82 206.95 231.69 202.77 231.69 197.27C231.691 195.791 231.984 194.327 232.552 192.961C233.12 191.595 233.951 190.355 234.999 189.311C236.047 188.267 237.29 187.44 238.658 186.877C240.026 186.314 241.491 186.026 242.97 186.03C249.17 186.03 254.97 191.19 254.97 198.86C254.97 208.22 246.97 216.99 235.52 217.27H234.66C237.25 218.254 239.999 218.756 242.77 218.75C255.03 218.75 264.97 209.13 264.97 197.26C264.97 185.39 255.03 175.78 242.77 175.78L242.71 175.77Z" />
<path d="M206.69 5.22008C200.471 6.61055 194.913 10.0805 190.933 15.0568C186.953 20.0331 184.79 26.218 184.8 32.5901C184.8 32.8801 184.87 33.2201 184.88 33.5101C204.62 37.7401 214.57 51.1401 214.57 68.8201C214.57 78.3385 210.801 87.4696 204.086 94.216C197.371 100.962 188.258 104.775 178.74 104.82C159.03 104.82 140.61 88.2501 140.61 63.6801C140.61 33.6801 166.13 5.55007 202.49 4.68007C203.15 4.68007 204.18 4.68007 205.25 4.74007C197.013 1.59356 188.268 -0.0130883 179.45 8.02971e-05C140.45 8.02971e-05 108.79 30.8401 108.79 68.8801C108.79 106.92 140.43 137.76 179.45 137.76C218.47 137.76 250.1 106.92 250.1 68.8801C250.1 40.2501 232.18 15.7001 206.69 5.31008V5.22008Z" />
</svg>
