<?xml version="1.0" encoding="UTF-8"?>
<svg width="141px" height="23px" viewBox="0 0 141 23" version="1.1" xmlns="http://www.w3.org/2000/svg" xmlns:xlink="http://www.w3.org/1999/xlink">
    <title>logo-2</title>
    <g id="logo-2" stroke="none" stroke-width="1" fill="none" fill-rule="evenodd">
        <path d="M6.968,17.16 L6.968,16.614 C6.006,16.614 5.954,16.302 5.954,15.028 L5.954,8.138 C6.24,7.54 6.656,7.332 7.072,7.332 C7.878,7.332 8.554,7.878 8.554,9.594 L8.554,15.028 C8.554,16.302 8.502,16.614 7.54,16.614 L7.54,17.16 L14.248,17.16 L14.248,16.614 C13.3297273,16.614 13.2406074,16.329719 13.2344029,15.1958255 L13.234,9.074 C13.234,6.994 11.882,5.304 9.438,5.304 C7.852,5.304 6.5,6.318 5.954,7.488 L5.954,0.26 L2.84217094e-14,0.26 L2.84217094e-14,0.806 C0.962,0.806 1.274,0.988 1.274,2.262 L1.274,15.028 C1.274,16.302 1.222,16.614 0.26,16.614 L0.26,17.16 L6.968,17.16 Z M18.174,4.758 C19.526,4.758 20.644,3.744 20.644,2.392 C20.644,1.014 19.526,-2.13162821e-14 18.174,-2.13162821e-14 C16.796,-2.13162821e-14 15.678,1.014 15.678,2.392 C15.678,3.744 16.796,4.758 18.174,4.758 Z M21.528,17.16 L21.528,16.614 C20.6097273,16.614 20.5206074,16.329719 20.5144029,15.1958255 L20.514,5.564 L14.82,5.564 L14.82,6.11 C15.782,6.11 15.834,6.422 15.834,7.696 L15.834,15.028 C15.834,16.302 15.782,16.614 14.82,16.614 L14.82,17.16 L21.528,17.16 Z M27.768,22.36 C31.122,22.36 34.346,20.54 34.346,17.914 C34.346,16.068 33.046,15.08 30.212,14.612 L26.572,14.014 C26.208,13.962 25.922,13.832 25.922,13.572 C25.922,13.39 26.026,13.208 26.572,13.104 C26.858,13.13 27.144,13.156 27.456,13.156 C30.472,13.156 32.838,11.492 32.838,9.204 C32.838,8.32 32.5,7.566 31.876,6.916 L34.164,6.968 L34.762,5.46 C33.5808571,5.57142857 32.1895918,5.58734694 30.4572187,5.58962099 L29.562,5.59 L29.562,5.59 C28.912,5.408 28.21,5.304 27.456,5.304 C24.44,5.304 22.1,6.942 22.1,9.204 C22.1,11.05 23.634,12.506 25.818,12.974 C24.362,13.39 23.296,14.274 23.296,15.652 C23.296,16.614 23.868,17.394 24.622,17.654 C22.568,17.654 21.138,18.304 21.138,19.552 C21.138,21.528 24.362,22.36 27.768,22.36 Z M27.456,12.454 C26.728,12.454 26.182,11.128 26.182,9.204 C26.182,7.28 26.728,5.98 27.456,5.98 C28.158,5.98 28.73,7.28 28.73,9.204 C28.73,11.128 28.158,12.454 27.456,12.454 Z M27.69,21.658 C25.48,21.658 23.946,20.852 23.946,19.37 C23.946,18.564 24.336,18.044 25.09,17.888 L29.744,18.98 C30.888,19.24 31.33,19.5 31.33,20.176 C31.33,21.164 29.744,21.658 27.69,21.658 Z M41.288,17.16 L41.288,16.614 C40.3697273,16.614 40.2806074,16.329719 40.2744029,15.1958255 L40.274,8.138 C40.56,7.54 40.976,7.332 41.392,7.332 C42.198,7.332 42.874,7.878 42.874,9.594 L42.874,15.028 C42.874,16.302 42.822,16.614 41.86,16.614 L41.86,17.16 L48.568,17.16 L48.568,16.614 C47.6497273,16.614 47.5606074,16.329719 47.5544029,15.1958255 L47.554,9.074 C47.554,6.994 46.202,5.304 43.758,5.304 C42.172,5.304 40.82,6.318 40.274,7.488 L40.274,0.26 L34.32,0.26 L34.32,0.806 C35.282,0.806 35.594,0.988 35.594,2.262 L35.594,15.028 C35.594,16.302 35.542,16.614 34.58,16.614 L34.58,17.16 L41.288,17.16 Z M55.77,17.16 L55.77,16.614 C54.8517273,16.614 54.7626074,16.329719 54.7564029,15.1958255 L54.756,0.26 L48.802,0.26 L48.802,0.806 C49.764,0.806 50.076,0.988 50.076,2.262 L50.076,15.028 C50.076,16.302 50.024,16.614 49.062,16.614 L49.062,17.16 L55.77,17.16 Z M65.494,17.42 C67.08,17.42 68.224,16.562 68.718,15.73 L68.328,15.314 C68.068,15.652 67.938,15.756 67.678,15.756 C67.288,15.756 67.08,15.444 67.08,14.95 L67.08,9.932 C67.08,7.202 65.26,5.304 62.114,5.304 C59.202,5.304 57.408,7.124 56.628,9.36 L57.226,9.594 C57.876,8.086 58.838,7.436 60.008,7.436 C61.594,7.436 62.374,8.58 62.374,9.958 L62.374,10.14 L60.32,10.998 C57.98,11.986 56.29,12.714 56.29,14.716 C56.29,16.354 57.564,17.42 59.228,17.42 C60.606,17.42 61.854,16.588 62.426,15.522 C62.946,16.952 64.246,17.42 65.494,17.42 Z M61.698,15.34 C60.944,15.34 60.398,14.482 60.398,13.468 C60.398,12.116 60.892,11.622 61.932,11.128 L62.374,10.92 L62.374,15.08 C62.114,15.314 61.88,15.34 61.698,15.34 Z M75.374,17.16 L75.374,16.614 C74.4557273,16.614 74.3666074,16.329719 74.3604029,15.1958255 L74.36,8.138 C74.646,7.54 75.062,7.332 75.478,7.332 C76.284,7.332 76.96,7.878 76.96,9.594 L76.96,15.028 C76.96,16.302 76.908,16.614 75.946,16.614 L75.946,17.16 L82.654,17.16 L82.654,16.614 C81.7357273,16.614 81.6466074,16.329719 81.6404029,15.1958255 L81.64,9.074 C81.64,6.994 80.288,5.304 77.844,5.304 C76.258,5.304 74.906,6.318 74.36,7.488 L74.36,5.564 L68.666,5.564 L68.666,6.11 C69.628,6.11 69.68,6.422 69.68,7.696 L69.68,15.028 C69.68,16.302 69.628,16.614 68.666,16.614 L68.666,17.16 L75.374,17.16 Z M87.906,17.42 C89.544,17.42 90.584,16.484 91.13,15.652 L91.13,17.16 L96.824,17.16 L96.824,16.614 C95.9057273,16.614 95.8166074,16.329719 95.8104029,15.1958255 L95.81,0.26 L89.856,0.26 L89.856,0.806 C90.818,0.806 91.13,0.988 91.13,2.262 L91.13,6.032 C90.558,5.616 89.752,5.304 88.816,5.304 C86.06,5.304 83.122,7.774 83.122,11.83 C83.122,15.236 85.28,17.42 87.906,17.42 Z M90.038,15.548 C88.842,15.548 87.906,14.196 87.906,11.154 C87.906,7.54 89.18,6.37 90.246,6.37 C90.558,6.37 90.87,6.448 91.13,6.604 L91.13,15.028 C90.87,15.392 90.532,15.548 90.038,15.548 Z M101.582,6.656 L101.582,4.368 L99.684,4.368 L99.684,6.656 L101.582,6.656 Z M101.582,17.16 L101.582,14.872 L99.684,14.872 L99.684,17.16 L101.582,17.16 Z M109.59,17.16 L109.59,16.614 C108.29,16.614 107.9,16.588 107.9,15.314 L107.9,0.26 L104.416,0.26 L104.416,0.806 C106.08,0.806 106.392,0.884 106.392,2.158 L106.392,15.314 C106.392,16.588 106.002,16.614 104.676,16.614 L104.676,17.16 L109.59,17.16 Z M118.69,17.42 C119.444,17.42 120.094,16.9 120.536,16.224 L120.25,15.912 C119.86,16.354 119.6,16.536 119.132,16.536 C118.664,16.536 118.17,16.12 118.17,15.236 L118.17,9.594 C118.17,7.28 116.844,5.98 114.894,5.98 C113.1,5.98 111.462,7.254 110.838,9.1 L111.306,9.282 C111.93,7.878 112.97,6.968 114.192,6.968 C116.012,6.968 116.688,8.268 116.688,9.854 L116.688,10.998 L113.802,12.012 C111.956,12.662 110.734,13.52 110.734,14.976 C110.734,16.562 112.034,17.42 113.386,17.42 C114.842,17.42 115.986,16.484 116.688,15.652 C116.896,16.692 117.65,17.42 118.69,17.42 Z M114.192,16.536 C112.996,16.536 112.216,15.86 112.216,14.716 C112.216,13.572 113.1,12.948 114.062,12.61 L116.688,11.648 L116.688,15.21 C116.012,15.99 115.128,16.536 114.192,16.536 Z M125.398,17.42 C128.336,17.42 131.404,15.028 131.404,11.232 C131.404,8.008 129.376,5.98 126.88,5.98 C125.424,5.98 124.124,6.864 123.474,7.852 L123.474,0.26 L120.016,0.26 L120.016,0.806 C121.654,0.806 121.966,0.884 121.966,2.158 L121.966,16.926 C123.24,17.316 124.41,17.42 125.398,17.42 Z M125.398,16.796 C124.28,16.796 123.474,16.38 123.474,14.95 L123.474,8.346 C123.994,7.566 125.008,6.838 126.282,6.838 C128.778,6.838 129.87,9.23 129.87,11.804 C129.87,15.158 127.816,16.796 125.398,16.796 Z M136.682,17.42 C138.632,17.42 140.114,16.042 140.114,14.352 C140.114,12.714 138.996,11.986 137.8,11.388 L136.136,10.556 C135.096,10.036 134.394,9.542 134.394,8.528 C134.394,7.41 135.122,6.604 136.422,6.604 C137.566,6.604 138.918,7.41 139.334,9.412 L139.75,9.36 L139.542,6.058 L139.23,6.058 C139.1,6.37 138.996,6.552 138.736,6.552 C138.346,6.552 137.54,5.98 136.448,5.98 C134.602,5.98 133.172,7.28 133.172,9.074 C133.172,10.556 134.264,11.362 135.434,11.96 L137.332,12.922 C138.268,13.416 138.866,13.858 138.866,14.768 C138.866,16.068 138.008,16.744 136.656,16.744 C134.836,16.744 133.588,15.262 133.328,13.546 L132.86,13.546 L133.016,17.238 L133.354,17.238 C133.406,16.9 133.64,16.536 133.9,16.536 C134.264,16.536 135.096,17.42 136.682,17.42 Z" id="highland:labs" fill="#111111" fill-rule="nonzero"></path>
    </g>
</svg>