<?xml version="1.0" encoding="UTF-8"?>
<svg width="40px" height="40px" viewBox="0 0 40 40" version="1.1" xmlns="http://www.w3.org/2000/svg" xmlns:xlink="http://www.w3.org/1999/xlink">
    <title>logo</title>
    <defs>
        <filter id="filter-1">
            <feColorMatrix in="SourceGraphic" type="matrix" values="0 0 0 0 0.592157 0 0 0 0 0.592157 0 0 0 0 0.592157 0 0 0 1.000000 0"></feColorMatrix>
        </filter>
    </defs>
    <g id="Welcome" stroke="none" stroke-width="1" fill="none" fill-rule="evenodd">
        <g id="Desktop-HD" transform="translate(-700.000000, -100.000000)">
            <g id="Masthead" transform="translate(196.000000, 100.000000)">
                <g id="Logo" transform="translate(504.000000, 0.000000)" filter="url(#filter-1)">
                    <g>
                        <path d="M27.2992,13.6128 L20,20.9122667 L12.7005333,13.6128 L4.03093333,22.2826667 C3.92533333,21.5328 3.87093333,20.7704 3.87093333,20 C3.87093333,15.6914667 5.5496,11.6413333 8.59626667,8.59466667 C11.6424,5.54853333 15.6928,3.87093333 20,3.87093333 C24.3085333,3.87093333 28.3586667,5.54853333 31.4050667,8.59466667 C34.4517333,11.6413333 36.1290667,15.6914667 36.1290667,20 C36.1290667,20.7704 36.0749333,21.5328 35.9690667,22.2826667 L27.2992,13.6128 Z M31.4050667,31.4053333 C31.2530667,31.5573333 31.0968,31.7069333 30.9394667,31.8514667 L22.7381333,23.6501333 L27.2992,19.0877333 L34.7522667,26.5405333 C33.9586667,28.3314667 32.8322667,29.9781333 31.4050667,31.4053333 Z M20,36.1288 C15.6928,36.1288 11.6424,34.4514667 8.59626667,31.4053333 C7.17013333,29.9781333 6.0424,28.3314667 5.24906667,26.5392 L12.7005333,19.0877333 L27.76,34.1472 C25.4104,35.4413333 22.7573333,36.1288 20,36.1288 Z M20,0 C8.95493333,0 0,8.95493333 0,20 C0,31.0450667 8.95493333,40 20,40 C31.0464,40 40,31.0450667 40,20 C40,8.95493333 31.0464,0 20,0 L20,0 Z" id="Fill-14" fill="#000000"></path>
                    </g>
                </g>
            </g>
        </g>
    </g>
</svg>