<svg viewBox="0 0 566 188">
<path d="M544.637 85.9184H557.95V103.031H565.89V112.987H557.95V149.225H544.637V112.987H537.816V103.031H544.637V85.9184ZM483.682 103.032H496.991V107.806C500.025 105.6 502.77 104.071 505.231 103.206C507.694 102.346 510.211 101.912 512.791 101.912C518.071 101.912 522.552 103.511 526.238 106.704C529.332 109.416 530.882 113.428 530.882 118.742V149.225H517.569V129.043C517.569 123.539 517.285 119.887 516.718 118.082C516.152 116.277 515.162 114.902 513.751 113.955C512.343 113.012 510.599 112.537 508.521 112.537C505.831 112.537 503.516 113.319 501.59 114.886C499.66 116.454 498.318 118.619 497.573 121.382C497.185 122.822 496.991 125.937 496.991 130.734V149.225H483.682V103.032ZM461.688 120.368C460.882 117.853 459.297 115.808 456.932 114.232C454.565 112.655 451.818 111.867 448.692 111.867C445.297 111.867 442.321 112.754 439.759 114.523C438.151 115.627 436.662 117.577 435.292 120.368H461.688ZM473.832 129.425H434.734C435.296 132.708 436.799 135.321 439.246 137.258C441.689 139.198 444.809 140.165 448.604 140.165C453.139 140.165 457.037 138.651 460.296 135.626L470.525 140.205C467.974 143.656 464.922 146.211 461.362 147.861C457.803 149.514 453.582 150.342 448.692 150.342C441.098 150.342 434.92 148.065 430.148 143.506C425.374 138.949 422.989 133.241 422.989 126.38C422.989 119.355 425.372 113.52 430.139 108.878C434.909 104.236 440.888 101.914 448.078 101.914C455.712 101.914 461.921 104.231 466.702 108.867C471.487 113.502 473.881 119.622 473.881 127.229L473.832 129.425ZM418.744 112.473L408.614 117.795C406.706 115.908 404.825 114.593 402.967 113.861C401.106 113.129 398.927 112.764 396.428 112.764C391.873 112.764 388.194 114.045 385.379 116.611C382.571 119.177 381.163 122.462 381.163 126.47C381.163 130.367 382.518 133.551 385.223 136.018C387.928 138.486 391.481 139.718 395.882 139.718C401.323 139.718 405.562 137.967 408.598 134.462L418.185 140.703C412.983 147.132 405.636 150.343 396.152 150.343C387.619 150.343 380.939 147.945 376.109 143.146C371.276 138.35 368.86 132.731 368.86 126.298C368.86 121.839 370.031 117.733 372.387 113.977C374.734 110.224 378.014 107.277 382.222 105.132C386.432 102.987 391.136 101.912 396.343 101.912C401.162 101.912 405.49 102.828 409.328 104.657C413.164 106.491 416.304 109.096 418.744 112.473ZM333.732 112.874C329.579 112.874 326.121 114.117 323.362 116.596C320.597 119.079 319.217 122.252 319.217 126.12C319.217 130.103 320.581 133.326 323.311 135.793C326.041 138.263 329.5 139.492 333.685 139.492C337.866 139.492 341.353 138.247 344.129 135.753C346.908 133.254 348.297 130.045 348.297 126.12C348.297 122.196 346.933 119.005 344.203 116.556C341.474 114.101 337.983 112.874 333.732 112.874ZM333.493 101.913C338.515 101.913 343.236 103.001 347.654 105.171C352.074 107.348 355.523 110.295 358.004 114.019C360.48 117.745 361.721 121.769 361.721 126.086C361.721 130.432 360.471 134.494 357.977 138.277C355.48 142.056 352.081 145.017 347.777 147.146C343.471 149.276 338.728 150.342 333.544 150.342C325.915 150.342 319.399 147.995 314.002 143.295C308.606 138.594 305.907 132.887 305.907 126.171C305.907 118.972 308.955 112.977 315.055 108.179C320.4 104.002 326.549 101.913 333.493 101.913ZM250.701 103.032H264.011V107.806C267.043 105.6 269.791 104.071 272.249 103.206C274.713 102.346 277.232 101.912 279.807 101.912C285.089 101.912 289.57 103.511 293.256 106.704C296.351 109.416 297.9 113.428 297.9 118.742V149.225H284.592V129.043C284.592 123.539 284.306 119.887 283.741 118.082C283.175 116.277 282.185 114.902 280.774 113.955C279.364 113.012 277.619 112.537 275.543 112.537C272.85 112.537 270.539 113.319 268.611 114.886C266.678 116.454 265.339 118.619 264.596 121.382C264.206 122.822 264.011 125.937 264.011 130.734V149.225H250.701V103.032ZM191.423 103.032H204.731V107.806C207.761 105.6 210.509 104.071 212.972 103.206C215.435 102.346 217.95 101.912 220.527 101.912C225.807 101.912 230.29 103.511 233.976 106.704C237.073 109.416 238.623 113.428 238.623 118.742V149.225H225.312V129.043C225.312 123.539 225.028 119.887 224.461 118.082C223.893 116.277 222.905 114.902 221.492 113.955C220.081 113.012 218.339 112.537 216.261 112.537C213.572 112.537 211.259 113.319 209.329 114.886C207.4 116.454 206.061 118.619 205.316 121.382C204.928 122.822 204.731 125.937 204.731 130.734V149.225H191.423V103.032ZM164.766 103.033H178.076V149.226H164.766V103.033ZM171.506 84.0167C173.83 84.0167 175.823 84.7512 177.485 86.2179C179.142 87.6869 179.975 89.4648 179.975 91.5518C179.975 93.6164 179.153 95.372 177.507 96.8276C175.861 98.2808 173.893 99.0064 171.602 99.0064C169.251 99.0064 167.238 98.2652 165.578 96.7805C163.917 95.3004 163.086 93.5022 163.086 91.3817C163.086 89.3529 163.908 87.6197 165.554 86.1776C167.2 84.7377 169.184 84.0167 171.506 84.0167Z" />
<path d="M102.328 156.599C75.1925 171.696 47.4838 172.82 47.4838 172.82C10.771 173.855 15.0413 144.59 15.0413 144.59C16.7096 121.427 31.0386 104.026 31.0386 104.026C45.6275 84.0356 51.7787 84.6962 51.7787 84.6962C53.8837 84.3446 56.9582 85.8449 56.9582 85.8449C59.7774 87.7103 59.9006 85.6188 59.9006 85.6188C61.3964 83.3079 62.3705 84.6626 62.3705 84.6626C67.5253 90.9594 72.8391 84.9963 72.8391 84.9963C76.0479 81.6038 85.2984 76.1556 85.2984 76.1556C93.8143 71.0792 102.78 80.2266 102.78 80.2266C118.504 92.986 118.91 122.659 118.91 122.659C119.956 148.168 102.328 156.599 102.328 156.599ZM99.4931 62.1804C90.5158 59.1506 63.1229 82.3472 63.1229 82.3472C60.0685 70.5485 52.8066 71.2248 52.8066 71.2248C41.8342 70.8822 29.6078 86.1047 29.6078 86.1047C9.96714 106.91 4.87727 125.003 4.87727 125.003C-4.41569 149.321 2.42753 165.561 2.42753 165.561C13.335 187.241 42.3895 187.349 42.3895 187.349C64.3097 188.898 97.7263 171.761 97.7263 171.761C137.305 154.568 133.096 117.134 133.096 117.134C130.881 70.656 99.4931 62.1804 99.4931 62.1804ZM92.4492 111.725C92.4492 111.725 96.6344 106.071 90.6645 101.727C84.6879 97.3801 78.4045 108.133 79.2935 115.003C79.9228 119.867 86.6406 126.65 91.5177 119.721C93.3449 117.124 90.6533 116.094 92.4492 111.725ZM69.1543 115.672C69.1543 115.672 71.2593 99.6435 62.8419 103.244C54.4222 106.834 55.3224 126.161 60.6339 130.337C65.95 134.513 73.3664 130.241 71.9646 123.442C70.5584 116.644 69.1543 115.672 69.1543 115.672ZM64.2 33.8798C51.7384 36.0989 15.4332 42.4361 18.7316 34.3187C24.9657 18.9842 62.1197 15.4305 62.1197 15.4305C62.1197 15.4305 63.0445 15.8761 64.4261 18.0975C65.8167 20.3188 78.5089 18.5408 81.0482 17.6518C83.5853 16.7629 86.5882 12.7635 103.667 15.8716C120.744 18.9842 75.1142 31.9294 64.2 33.8798ZM124.9 12.1007C115.667 0.53935 94.8936 1.87397 88.2049 3.2108C88.2049 3.2108 75.9673 -3.0166 56.1207 1.87397C36.2741 6.76453 5.34305 22.0945 1.42209 40.7656C-2.472 59.2977 61.8913 44.0954 67.1983 42.763C72.5077 41.4306 134.132 23.6508 124.9 12.1007Z" />
</svg>
